ffmpeg version 2.8.11-0ubuntu0.16.04.1 Copyright (c) 2000-2017 the FFmpeg developers
  built with gcc 5.4.0 (Ubuntu 5.4.0-6ubuntu1~16.04.4) 20160609
  configuration: --prefix=/usr --extra-version=0ubuntu0.16.04.1 --build-suffix=-ffmpeg --toolchain=hardened --libdir=/usr/lib/x86_64-linux-gnu --incdir=/usr/include/x86_64-linux-gnu --cc=cc --cxx=g++ --enable-gpl --enable-shared --disable-stripping --disable-decoder=libopenjpeg --disable-decoder=libschroedinger --enable-avresample --enable-avisynth --enable-gnutls --enable-ladspa --enable-libass --enable-libbluray --enable-libbs2b --enable-libcaca --enable-libcdio --enable-libflite --enable-libfontconfig --enable-libfreetype --enable-libfribidi --enable-libgme --enable-libgsm --enable-libmodplug --enable-libmp3lame --enable-libopenjpeg --enable-libopus --enable-libpulse --enable-librtmp --enable-libschroedinger --enable-libshine --enable-libsnappy --enable-libsoxr --enable-libspeex --enable-libssh --enable-libtheora --enable-libtwolame --enable-libvorbis --enable-libvpx --enable-libwavpack --enable-libwebp --enable-libx265 --enable-libxvid --enable-libzvbi --enable-openal --enable-opengl --enable-x11grab --enable-libdc1394 --enable-libiec61883 --enable-libzmq --enable-frei0r --enable-libx264 --enable-libopencv
  libavutil      54. 31.100 / 54. 31.100
  libavcodec     56. 60.100 / 56. 60.100
  libavformat    56. 40.101 / 56. 40.101
  libavdevice    56.  4.100 / 56.  4.100
  libavfilter     5. 40.101 /  5. 40.101
  libavresample   2.  1.  0 /  2.  1.  0
  libswscale      3.  1.101 /  3.  1.101
  libswresample   1.  2.101 /  1.  2.101
  libpostproc    53.  3.100 / 53.  3.100
[mp3 @ 0x12178c0] Unknown attached picture mimetype: ('image/png', None), skipping.
[mp3 @ 0x12178c0] Skipping 0 bytes of junk at 17522.
Input #0, mp3, from '112-miguel-de-cervantes-saavedra-don-kichot-z-la-manchy-ksiega-08-rozdzial-09.mp3':
  Metadata:
    title           : Miguel De Cervantes Saavedra, "Don Kichot z La Manchy", księga 08, rozdział 09 (tłum. Walenty Zakrzewski)
    artist          : Wiktor Korzeniewski
    album           : Wolne Lektury
    genre           : 0
    URL             : http://wolnelektury.pl/katalog/lektura/don-kichot-z-la-manchy.
    encoder         : Lavf53.21.0
    date            : 2012
    CONDUCTOR       : Adam Bień
    performer       : Adam Bień
    album_artist    : Fundacja Nowoczesna Polska
    copyright       : 2012 Fundacja Nowoczesna Polska. Licensed to the public under http://creativecommons.org/licenses/by-sa/3.0/deed.pl verify at http://wolnelektury.pl/katalog/lektura/don-kichot-z-la-manchy
    TRANSLATOR      : Walenty Zakrzewski
    encoded_by      : Adam Bień
    publisher       : Fundacja Nowoczesna Polska
  Duration: 00:06:35.00, start: 0.000000, bitrate: 64 kb/s
    Stream #0:0: Audio: mp3, 44100 Hz, mono, s16p, 64 kb/s
Output #0, null, to 'pipe:':
  Metadata:
    title           : Miguel De Cervantes Saavedra, "Don Kichot z La Manchy", księga 08, rozdział 09 (tłum. Walenty Zakrzewski)
    artist          : Wiktor Korzeniewski
    album           : Wolne Lektury
    genre           : 0
    URL             : http://wolnelektury.pl/katalog/lektura/don-kichot-z-la-manchy.
    date            : 2012
    CONDUCTOR       : Adam Bień
    performer       : Adam Bień
    album_artist    : Fundacja Nowoczesna Polska
    copyright       : 2012 Fundacja Nowoczesna Polska. Licensed to the public under http://creativecommons.org/licenses/by-sa/3.0/deed.pl verify at http://wolnelektury.pl/katalog/lektura/don-kichot-z-la-manchy
    TRANSLATOR      : Walenty Zakrzewski
    encoded_by      : Adam Bień
    publisher       : Fundacja Nowoczesna Polska
    encoder         : Lavf56.40.101
    Stream #0:0: Audio: pcm_s16le, 44100 Hz, mono, s16, 705 kb/s
    Metadata:
      encoder         : Lavc56.60.100 pcm_s16le
Stream mapping:
  Stream #0:0 -> #0:0 (mp3 (native) -> pcm_s16le (native))
Press [q] to stop, [?] for help
[silencedetect @ 0x122aca0] silence_start: 6.18735
[silencedetect @ 0x122aca0] silence_end: 6.79184 | silence_duration: 0.60449
[silencedetect @ 0x122aca0] silence_start: 11.3335
[silencedetect @ 0x122aca0] silence_end: 12.0947 | silence_duration: 0.761224
[silencedetect @ 0x122aca0] silence_start: 17.4984
[silencedetect @ 0x122aca0] silence_end: 18.1812 | silence_duration: 0.682857
[silencedetect @ 0x122aca0] silence_start: 20.7898
[silencedetect @ 0x122aca0] silence_end: 21.2898 | silence_duration: 0.5
[silencedetect @ 0x122aca0] silence_start: 23.82
[silencedetect @ 0x122aca0] silence_end: 24.5029 | silence_duration: 0.682857
[silencedetect @ 0x122aca0] silence_start: 52.2935
[silencedetect @ 0x122aca0] silence_end: 52.8718 | silence_duration: 0.578367
[silencedetect @ 0x122aca0] silence_start: 68.62
[silencedetect @ 0x122aca0] silence_end: 69.1984 | silence_duration: 0.578367
[silencedetect @ 0x122aca0] silence_start: 80.4273
[silencedetect @ 0x122aca0] silence_end: 81.0318 | silence_duration: 0.60449
[silencedetect @ 0x122aca0] silence_start: 86.0959
[silencedetect @ 0x122aca0] silence_end: 86.6482 | silence_duration: 0.552245
[silencedetect @ 0x122aca0] silence_start: 90.4061
[silencedetect @ 0x122aca0] silence_end: 90.9845 | silence_duration: 0.578367
[silencedetect @ 0x122aca0] silence_start: 98.5824
[silencedetect @ 0x122aca0] silence_end: 99.2131 | silence_duration: 0.630612
[silencedetect @ 0x122aca0] silence_start: 107.203
[silencedetect @ 0x122aca0] silence_end: 107.886 | silence_duration: 0.682857
[silencedetect @ 0x122aca0] silence_start: 119.82
[silencedetect @ 0x122aca0] silence_end: 120.398 | silence_duration: 0.578367
[silencedetect @ 0x122aca0] silence_start: 127.16
[silencedetect @ 0x122aca0] silence_end: 127.765 | silence_duration: 0.60449
[silencedetect @ 0x122aca0] silence_start: 134.449
[silencedetect @ 0x122aca0] silence_end: 135.105 | silence_duration: 0.656735
[silencedetect @ 0x122aca0] silence_start: 140.352
[silencedetect @ 0x122aca0] silence_end: 140.931 | silence_duration: 0.578367
[silencedetect @ 0x122aca0] silence_start: 150.462
[silencedetect @ 0x122aca0] silence_end: 151.066 | silence_duration: 0.60449
[silencedetect @ 0x122aca0] silence_start: 156.888
[silencedetect @ 0x122aca0] silence_end: 157.44 | silence_duration: 0.552245
[silencedetect @ 0x122aca0] silence_start: 168.434
[silencedetect @ 0x122aca0] silence_end: 168.986 | silence_duration: 0.552245
[silencedetect @ 0x122aca0] silence_start: 180.45
[silencedetect @ 0x122aca0] silence_end: 181.107 | silence_duration: 0.656735
[silencedetect @ 0x122aca0] silence_start: 192.78
[silencedetect @ 0x122aca0] silence_end: 193.28 | silence_duration: 0.5
[silencedetect @ 0x122aca0] silence_start: 207.278
[silencedetect @ 0x122aca0] silence_end: 207.935 | silence_duration: 0.656735
[silencedetect @ 0x122aca0] silence_start: 237.319
[silencedetect @ 0x122aca0] silence_end: 238.002 | silence_duration: 0.682857
[silencedetect @ 0x122aca0] silence_start: 252.104
[silencedetect @ 0x122aca0] silence_end: 252.604 | silence_duration: 0.5
[silencedetect @ 0x122aca0] silence_start: 257.747
[silencedetect @ 0x122aca0] silence_end: 258.325 | silence_duration: 0.578367
[silencedetect @ 0x122aca0] silence_start: 271.67
[silencedetect @ 0x122aca0] silence_end: 272.196 | silence_duration: 0.526122
[silencedetect @ 0x122aca0] silence_start: 296.564
[silencedetect @ 0x122aca0] silence_end: 297.43 | silence_duration: 0.865714
[silencedetect @ 0x122aca0] silence_start: 307.17
[silencedetect @ 0x122aca0] silence_end: 307.853 | silence_duration: 0.682857
[silencedetect @ 0x122aca0] silence_start: 318.821
[silencedetect @ 0x122aca0] silence_end: 319.451 | silence_duration: 0.630612
[silencedetect @ 0x122aca0] silence_start: 339.066
[silencedetect @ 0x122aca0] silence_end: 339.67 | silence_duration: 0.60449
[silencedetect @ 0x122aca0] silence_start: 354.791
[silencedetect @ 0x122aca0] silence_end: 355.422 | silence_duration: 0.630612
[silencedetect @ 0x122aca0] silence_start: 365.188
[silencedetect @ 0x122aca0] silence_end: 365.74 | silence_duration: 0.552245
[silencedetect @ 0x122aca0] silence_start: 374.253
[silencedetect @ 0x122aca0] silence_end: 374.936 | silence_duration: 0.682857
[silencedetect @ 0x122aca0] silence_start: 392.382
size=N/A time=00:06:34.99 bitrate=N/A    
video:0kB audio:34022kB subtitle:0kB other streams:0kB global headers:0kB muxing overhead: unknown
